<svg width="46" height="42" viewBox="0 0 46 42" fill="none" xmlns="http://www.w3.org/2000/svg">
<path d="M4.5918 31.8333H20.8678" stroke="#FAB924" stroke-width="1.5" stroke-linecap="round" stroke-linejoin="round"/>
<path d="M37.1426 31.8333H42.5679" stroke="#FAB924" stroke-width="1.5" stroke-linecap="round" stroke-linejoin="round"/>
<path d="M24.0831 5.83333C27.0744 5.83333 29.4993 8.25846 29.4993 11.25C29.4993 14.2415 27.0744 16.6667 24.0831 16.6667C21.0919 16.6667 18.667 14.2415 18.667 11.25C18.667 8.25846 21.0919 5.83333 24.0831 5.83333ZM24.0831 5.83333C24.4443 4.75 26.0329 2.36667 29.4993 1.5" stroke="#FAB924" stroke-width="1.5" stroke-linecap="round" stroke-linejoin="round"/>
<path d="M18.6349 12.3666C5.74467 17.2385 0.546042 19.4873 1.33417 21.1008C5.62225 23.127 13.4998 22.6056 21.5602 22.3032C23.7783 22.2199 25.9681 23.3192 26.4711 25.5021C26.8264 27.0437 26.9202 28.3877 27.6209 29.2417C28.0226 29.7314 28.7057 29.8977 29.3153 29.7382C30.9628 29.3072 31.644 27.4661 32.4571 24.236C32.6158 23.6054 32.8411 22.9283 33.4506 22.7168C36.1811 21.7691 44.5859 23.8593 44.5859 20.0091C44.4503 16.0002 42.9908 13.5029 38.3048 9.7886C36.7972 8.59363 34.8932 8.00055 32.9826 8.15392C30.9778 8.31485 30.0441 8.5758 29.4478 9.0912" stroke="#FAB924" stroke-width="1.5" stroke-linecap="round" stroke-linejoin="round"/>
<path d="M1.28223 20.9847L3.39545 30.3132C4.47772 35.1968 5.01886 37.6385 6.8014 39.0693C8.58396 40.5002 11.0847 40.5002 16.0862 40.5002H34.6706C38.4026 40.5002 40.2685 40.5002 41.5069 39.3779C42.7452 38.2555 42.9283 36.3985 43.2946 32.6842L44.574 20.2065" stroke="#FAB924" stroke-width="1.5" stroke-linecap="round"/>
</svg>
