<svg width="24" height="24" viewBox="0 0 24 24" fill="none" xmlns="http://www.w3.org/2000/svg">
<path d="M2.25 13.915H21.75M20.65 13.915C20.65 9.13801 16.7775 5.26501 12 5.26501C7.2225 5.26501 3.35 9.13801 3.35 13.915" stroke="#FFFEFE" stroke-linecap="round" stroke-linejoin="round"/>
<path d="M8.39785 7.36601C7.50415 7.94903 6.76551 8.7405 6.24552 9.67229C5.72554 10.6041 5.43978 11.6483 5.41285 12.715M12.0004 5.26501V4.13501M12.4704 17.275C15.0694 17.2435 15.4024 17.135 20.2079 15.915C20.5104 15.8385 20.7349 15.9935 20.8009 16.1695C20.8684 16.3495 20.8409 16.6685 20.4304 16.775C19.6204 16.985 14.5704 19.315 13.4204 19.315C12.2704 19.315 8.92035 19.065 7.66035 19.065C6.40035 19.065 4.93035 19.865 4.93035 19.865C3.92035 18.925 3.28035 17.365 3.11035 15.675H15.5904C16.1054 15.675 16.2704 16.395 15.8304 16.595C15.1779 16.8915 14.0704 17.275 12.4704 17.275Z" stroke="#FFFEFE" stroke-linecap="round" stroke-linejoin="round"/>
</svg>
