<svg width="42" height="46" viewBox="0 0 42 46" fill="none" xmlns="http://www.w3.org/2000/svg">
<path d="M3.77944 15.3333C-0.933771 19.6863 2.05895 27.3333 9.11727 27.3333C12.6508 27.3333 15.6356 25.2069 16.5945 22.2908M7.86452 19.3333C0.0335131 16.2636 4.20023 6.44947 12.2295 7.39718C12.2295 4.08347 15.161 1.33334 18.777 1.33334C22.3931 1.33334 25.3246 3.54742 25.3246 6.86113C26.4829 5.91105 28.0126 5.33334 29.6896 5.33334C33.3057 5.33334 36.2371 8.01964 36.2371 11.3333C36.2371 14.6471 33.3057 17.3333 29.6896 17.3333M35.8645 13.3333C43.4259 16.085 41.2253 27.3333 32.9633 27.3333C28.7446 27.3333 25.3246 24.0922 25.3246 20.094C23.1421 23.3333 19.8683 24.3333 16.5945 22.3333" stroke="#ABB24A" stroke-width="1.5" stroke-linecap="round" stroke-linejoin="round"/>
<path d="M10.167 27.3333C12.0874 28.2898 15.3949 32.8292 15.5837 42.5C15.6116 43.93 19.45 44.6667 21.0003 44.6667C22.5506 44.6667 26.3891 43.93 26.417 42.5C26.6058 32.8292 29.9133 28.2898 31.8337 27.3333" stroke="#ABB24A" stroke-width="1.5" stroke-linecap="round"/>
</svg>
