<svg width="124" height="105" viewBox="0 0 124 105" fill="none" xmlns="http://www.w3.org/2000/svg">
<ellipse cx="3.08608" cy="22.5" rx="2.94545" ry="2.5" fill="#7EA68C"/>
<ellipse cx="3.08608" cy="62.5" rx="2.94545" ry="2.5" fill="#7EA68C"/>
<ellipse cx="3.08608" cy="102.5" rx="2.94545" ry="2.5" fill="#7EA68C"/>
<ellipse cx="3.08608" cy="2.5" rx="2.94545" ry="2.5" fill="#7EA68C"/>
<ellipse cx="3.08608" cy="42.5" rx="2.94545" ry="2.5" fill="#7EA68C"/>
<ellipse cx="3.08608" cy="82.5" rx="2.94545" ry="2.5" fill="#7EA68C"/>
<ellipse cx="26.6505" cy="22.5" rx="2.94545" ry="2.5" fill="#7EA68C"/>
<ellipse cx="26.6505" cy="62.5" rx="2.94545" ry="2.5" fill="#7EA68C"/>
<ellipse cx="26.6505" cy="102.5" rx="2.94545" ry="2.5" fill="#7EA68C"/>
<ellipse cx="26.6505" cy="2.5" rx="2.94545" ry="2.5" fill="#7EA68C"/>
<ellipse cx="26.6505" cy="42.5" rx="2.94545" ry="2.5" fill="#7EA68C"/>
<ellipse cx="26.6505" cy="82.5" rx="2.94545" ry="2.5" fill="#7EA68C"/>
<ellipse cx="50.213" cy="22.5" rx="2.94545" ry="2.5" fill="#7EA68C"/>
<ellipse cx="50.213" cy="62.5" rx="2.94545" ry="2.5" fill="#7EA68C"/>
<ellipse cx="50.213" cy="102.5" rx="2.94545" ry="2.5" fill="#7EA68C"/>
<ellipse cx="50.213" cy="2.5" rx="2.94545" ry="2.5" fill="#7EA68C"/>
<ellipse cx="50.213" cy="42.5" rx="2.94545" ry="2.5" fill="#7EA68C"/>
<ellipse cx="50.213" cy="82.5" rx="2.94545" ry="2.5" fill="#7EA68C"/>
<ellipse cx="73.7775" cy="22.5" rx="2.94545" ry="2.5" fill="#7EA68C"/>
<ellipse cx="73.7775" cy="62.5" rx="2.94545" ry="2.5" fill="#7EA68C"/>
<ellipse cx="73.7775" cy="102.5" rx="2.94545" ry="2.5" fill="#7EA68C"/>
<ellipse cx="73.7775" cy="2.5" rx="2.94545" ry="2.5" fill="#7EA68C"/>
<ellipse cx="73.7775" cy="42.5" rx="2.94545" ry="2.5" fill="#7EA68C"/>
<ellipse cx="73.7775" cy="82.5" rx="2.94545" ry="2.5" fill="#7EA68C"/>
<ellipse cx="97.34" cy="22.5" rx="2.94545" ry="2.5" fill="#7EA68C"/>
<ellipse cx="97.34" cy="62.5" rx="2.94545" ry="2.5" fill="#7EA68C"/>
<ellipse cx="97.34" cy="102.5" rx="2.94545" ry="2.5" fill="#7EA68C"/>
<ellipse cx="97.34" cy="2.5" rx="2.94545" ry="2.5" fill="#7EA68C"/>
<ellipse cx="97.34" cy="42.5" rx="2.94545" ry="2.5" fill="#7EA68C"/>
<ellipse cx="97.34" cy="82.5" rx="2.94545" ry="2.5" fill="#7EA68C"/>
<ellipse cx="120.904" cy="22.5" rx="2.94545" ry="2.5" fill="#7EA68C"/>
<ellipse cx="120.904" cy="62.5" rx="2.94545" ry="2.5" fill="#7EA68C"/>
<ellipse cx="120.904" cy="102.5" rx="2.94545" ry="2.5" fill="#7EA68C"/>
<ellipse cx="120.904" cy="2.5" rx="2.94545" ry="2.5" fill="#7EA68C"/>
<ellipse cx="120.904" cy="42.5" rx="2.94545" ry="2.5" fill="#7EA68C"/>
<ellipse cx="120.904" cy="82.5" rx="2.94545" ry="2.5" fill="#7EA68C"/>
</svg>
